PathFileType	4	(X/Y/Z)	C:/Users/beibeiliu/ov580/test_trc\sequence.35_training_dense_right.trc
DataRate	CameraRate	NumFrames	NumMarkers	Units	OrigDataRate	OrigDataStartFrame	OrigNumFrames
120	120	8	19	mm	120	213	283
Frame#	Time	ThumbCMC			ThumbMCP			ThumbIP			ThumbTip			IndexMCP			IndexPIP			IndexTip			MiddleMCP			MiddlePIP			MiddleTip			RingMCP			RingPIP			RingTip			PinkyMCP			PinkyPIP			PinkyTip			BackHand1			BackHand2			BackHand3	
		X0	Y0	Z0	X1	Y1	Z1	X2	Y2	Z2	X3	Y3	Z3	X4	Y4	Z4	X5	Y5	Z5	X6	Y6	Z6	X7	Y7	Z7	X8	Y8	Z8	X9	Y9	Z9	X10	Y10	Z10	X11	Y11	Z11	X12	Y12	Z12	X13	Y13	Z13	X14	Y14	Z14	X15	Y15	Z15	X16	Y16	Z16	X17	Y17	Z17	X18	Y18	Z18	
212	1.76667	208.377	37.1161	54.9843	182.541	44.1198	45.484	162.529	50.0171	29.5322	140.617	42.4959	19.3901	187.031	19.3214	-1.13431	162.876	27.6383	-0.22315	154.031	35.7808	30.0804	175.51	-4.34986	1.10983	152.287	8.08628	-1.1181	140.488	22.877	24.9473	168.107	-19.5533	14.0759	146.564	-1.90874	13.1331	142.2	15.1036	33.2912	166.742	-30.3053	30.6502	147.493	-18.4233	23.0875	141.018	3.36912	33.9094	208.903	-18.7752	49.3979	218.292	-12.6186	71.6101	224.277	4.72883	49.9491	
213	1.775	206.551	37.6282	47.0375	179.648	45.2113	28.4366	161.759	45.4115	13.6323	142.617	35.3744	0.680849	192.123	19.7447	-9.4669	164.109	25.1584	-11.1367	151.311	29.579	18.6019	185.051	-4.9142	-8.63044	155.105	3.1158	-13.9832	140.742	15.9638	15.2302	177.987	-17.5741	-0.18051	153.77	-8.60576	-0.889484	146.044	12.4567	19.4298	176.626	-31.4259	18.2797	154.071	-23.4743	10.5965	147.342	-2.08659	16.4862	214.378	-16.9449	42.0169	221.593	-10.7581	66.3362	227.279	10.4692	44.3818	
214	1.78333	207.289	40.7547	37.4202	183.932	41.9211	19.4383	166.848	43.6904	-2.28528	150.439	35.3393	-14.798	199.275	19.2594	-22.2664	172.234	19.1356	-25.5164	155.353	23.8532	-0.799066	195.397	-3.1966	-22.0018	167.296	-3.09619	-27.9461	149.264	12.6975	-3.72569	189.818	-18.7399	-12.9934	162.75	-10.5845	-15.5266	152.779	4.55483	3.35851	187.366	-34.7496	4.93068	166.581	-24.2142	-6.31134	156.474	-4.78157	2.24377	220.218	-17.3981	29.0393	226.138	-10.9725	55.1721	228.97	11.2991	36.2182	
215	1.79167	212.026	39.3822	25.1049	190.724	40.3618	1.49682	178.374	38.6948	-15.9295	163.722	27.7576	-33.2401	213.029	15.4906	-34.8837	186.362	16.6384	-42.8924	165.151	18.0445	-24.6613	209.904	-2.91814	-35.1809	183.27	-3.76563	-42.1756	164.264	6.65603	-14.8715	204.396	-22.7847	-22.9648	178.343	-11.0059	-29.3909	168.419	1.82801	-12.1439	204.698	-34.1295	-9.44111	183.695	-30.55	-20.7513	170.19	-11.1316	-14.711	230.715	-12.8156	22.2138	232.016	-6.09215	46.9944	238.335	16.0871	25.1554	
216	1.8	220.971	40.3868	15.0926	202.944	37.017	-10.2117	193.764	26.7649	-31.8553	183.968	12.4097	-48.0788	233.408	14.336	-42.4627	209.834	11.3304	-55.9337	182.43	13.35	-49.4263	232.228	-3.82891	-40.7077	200.981	-5.17949	-51.2189	185.696	8.68502	-29.4213	224.886	-20.8488	-35.4058	200.37	-16.0742	-42.0365	187.394	0.997952	-21.0202	223.752	-34.5771	-18.9121	205.757	-27.2683	-34.4832	188.244	-12.0497	-22.3567	245.044	-12.0371	12.3937	241.558	-8.5432	38.214	245.624	14.6091	22.4154	
217	1.80833	232.967	37.33	7.84602	218.46	36.8304	-21.5619	213.217	25.3726	-46.1938	207.471	7.97515	-56.9004	256.708	14.6181	-48.8774	234.607	10.9392	-66.1211	206.621	10.9355	-65.567	253.329	-8.24796	-49.3074	227.102	-8.77111	-61.1716	207.007	3.79506	-37.0322	248.066	-22.7356	-41.7414	222.348	-19.3107	-50.8093	208.444	-2.54666	-33.8023	245.834	-36.618	-25.0626	230.019	-32.4105	-43.0919	213.824	-13.9653	-37.6506	256.77	-13.5792	10.3919	253.092	-8.61304	32.6969	259.209	14.6671	15.815	
218	1.81667	247.202	34.6708	1.82666	236.82	32.078	-30.4092	234.644	23.477	-55.0017	231.002	8.80466	-70.849	278.538	13.8192	-50.5418	259.425	8.39679	-70.5233	232.243	2.45448	-75.0069	279.13	-6.59096	-50.5495	252.622	-12.4815	-66.9177	227.91	-2.11425	-47.0561	273.032	-24.5242	-44.3696	251.635	-25.2328	-57.7041	231.771	-10.2584	-42.4701	271.366	-35.2634	-26.8316	258.041	-39.0776	-47.6343	238.224	-17.1152	-43.6941	275.838	-12.2203	10.8823	265.933	-5.16199	31.8743	274.217	12.8641	13.9011	
219	1.825	259.941	29.9713	-4.19201	253.179	29.573	-36.9198	256.234	22.5729	-61.2382	254.641	13.0244	-79.2261	299.728	10.0354	-49.7107	282.41	1.60284	-72.4942	259.277	-4.16298	-77.8481	303.115	-10.1452	-51.4885	282.167	-16.669	-69.9876	252.649	-10.2144	-58.6942	297.994	-29.2535	-43.1897	278.362	-27.0209	-60.3177	254.933	-14.8668	-49.4543	295.812	-38.0197	-29.2197	287.064	-40.0993	-48.714	264.309	-27.1967	-51.496	291.613	-13.8422	8.18479	277.767	-5.55783	27.9222	284.494	15.7293	12.2252	
